<svg version="1.1" id="Layer_1" xmlns="http://www.w3.org/2000/svg" x="0" y="0" viewBox="0 0 222 142" xml:space="preserve"><style type="text/css">.st0{fill:#333}.st1{fill:#ae40b0}.st2{fill:#f03330}.st3{fill:#6fc}.st4{fill:#05a6fe}</style><g id="Layer_x0020_1"><g id="_2224565951488"><path class="st0" d="M4.15 111.74c1.33 0 2.75-.22 4-1.04 1.82-1.18 2.38-2.91 2.38-4.37 0-2.4-1.09-4.13-4.13-6.42l-.71-.53c-2.09-1.58-2.66-2.46-2.66-3.62 0-1.51 1.13-2.6 3-2.6 1.64 0 2.35.75 2.73 1.24.53.64.67 1.44.67 1.67 0 .29.07.44.24.44.2 0 .29-.2.29-.75 0-1.95.09-2.69.09-3.02 0-.18-.11-.24-.36-.29-.65-.18-1.72-.45-3.34-.45-3.51 0-5.82 2-5.82 4.75 0 2.04.95 3.82 3.73 5.97l1.15.91c2.09 1.64 2.46 2.8 2.46 4.02 0 1.33-1.11 2.86-3.37 2.86-1.55 0-3.04-.67-3.6-2.53-.13-.42-.22-.95-.22-1.29 0-.2-.04-.42-.27-.42-.2 0-.27.27-.29.64-.02.4-.13 1.93-.13 3.31 0 .55.07.67.49.84 1.07.5 2.21.68 3.67.68zm15.7-7.66c0 2.33 0 4.31-.11 5.37-.09.73-.24 1.29-.73 1.38-.22.04-.53.11-.91.11-.31 0-.4.07-.4.2 0 .18.18.24.49.24 1.02 0 2.6-.07 3.17-.07.71 0 2.29.07 3.95.07.29 0 .49-.07.49-.24 0-.13-.13-.2-.4-.2-.38 0-.93-.07-1.29-.11-.75-.09-.91-.64-.98-1.35-.13-1.1-.13-3.07-.13-5.4v-10.3l3.17.07c2.24.04 2.91.75 2.95 1.4l.04.29c.02.38.07.51.27.51.16 0 .2-.16.22-.42 0-.64.09-2.38.09-2.91 0-.38-.02-.53-.2-.53-.11 0-.31.04-.69.13-.38.04-.93.13-1.73.13h-9.97c-.82 0-1.78-.07-2.51-.13-.63-.05-.88-.32-1.08-.32-.16 0-.22.16-.31.49-.04.2-.53 2.49-.53 2.89 0 .29.07.4.24.4.16 0 .22-.09.27-.29.04-.2.18-.51.42-.89.38-.56 1-.69 2.44-.73l3.75-.09v10.3zm14.52 0c0 2.33 0 4.31-.11 5.37-.11.73-.24 1.29-.73 1.38-.24.04-.53.11-.91.11-.31 0-.4.07-.4.2 0 .18.18.24.49.24.51 0 1.18-.04 1.75-.04.6-.02 1.15-.02 1.42-.02.75 0 1.53.02 2.62.07 1.09.02 2.46.07 4.35.07.95 0 1.18 0 1.35-.64.13-.51.33-2.22.33-2.8 0-.24 0-.44-.2-.44-.18 0-.22.09-.27.38-.18 1.02-.49 1.55-1.13 1.86-.67.29-1.71.29-2.38.29-2.58 0-2.97-.38-3.02-2.11-.02-.73 0-3.04 0-3.91v-1.98c0-.16.02-.27.16-.27.6 0 3.09.04 3.57.09.93.09 1.29.47 1.4.98.09.33.09.64.11.91 0 .11.04.22.22.22.22 0 .22-.27.22-.49 0-.16.09-1.18.11-1.67.09-1.29.2-1.69.2-1.84s-.09-.2-.18-.2c-.13 0-.22.11-.4.31-.24.27-.62.33-1.22.38-.58.07-3.46.07-4.02.07-.16 0-.18-.11-.18-.29v-6.35c0-.18.04-.27.18-.27.51 0 3.15.04 3.57.11 1.27.16 1.51.44 1.69.91.13.29.16.71.16.89 0 .24.04.36.22.36s.22-.16.24-.27c.04-.31.11-1.42.13-1.67.07-1.15.2-1.47.2-1.64 0-.11-.02-.22-.16-.22-.13 0-.27.07-.4.11-.2.04-.6.09-1.09.13-.47.04-5.48.04-6.28.04-.36 0-.93-.04-1.6-.07-.62 0-1.35-.02-2.02-.02-.38 0-.56.04-.56.22s.16.24.42.24c.36 0 .78.02.98.07.84.18 1.04.58 1.09 1.44.04.8.04 1.51.04 5.33v4.43zm20.06 6.13c.47 1.18.62 1.53.95 1.53s.49-.4 1.15-1.86c.56-1.27 1.73-4 3.33-7.68 1.38-3.09 2.04-4.44 3.02-6.82.69-1.6 1.07-2.04 1.4-2.26.44-.29.98-.29 1.22-.29.27 0 .4-.07.4-.24 0-.18-.2-.22-.51-.22-.75 0-1.95.09-2.38.09-.33 0-1.38-.09-2.64-.09-.47 0-.71.04-.71.24 0 .18.2.22.44.22.31 0 .69.02 1 .11.22.09.33.29.33.49 0 .22-.11.6-.22.93-.62 1.64-3.88 9.75-4.97 12.52h-.09l-4.33-11.41c-.36-.91-.58-1.62-.58-1.95 0-.22.07-.4.24-.53.2-.13.58-.16.98-.16.22 0 .38-.07.38-.24 0-.18-.27-.22-.58-.22-1.24 0-2.46.09-3.09.09-.89 0-2.31-.09-3.66-.09-.38 0-.64.02-.64.22 0 .16.07.24.31.24.2 0 .6 0 .98.09.91.24 1.33.53 1.91 1.91l6.36 15.38zm14.19-6.13c0 2.33 0 4.31-.13 5.37-.09.73-.22 1.29-.73 1.38-.22.04-.53.11-.91.11-.29 0-.4.07-.4.2 0 .18.18.24.51.24.51 0 1.15-.04 1.73-.04.6-.02 1.15-.02 1.44-.02.75 0 1.53.02 2.62.07 1.07.02 2.46.07 4.35.07.95 0 1.18 0 1.35-.64.13-.51.33-2.22.33-2.8 0-.24 0-.44-.2-.44-.18 0-.24.09-.29.38-.18 1.02-.47 1.55-1.13 1.86-.64.29-1.71.29-2.35.29-2.58 0-2.97-.38-3.02-2.11-.04-.73 0-3.04 0-3.91v-1.98c0-.16.02-.27.13-.27.62 0 3.11.04 3.57.09.93.09 1.29.47 1.42.98.07.33.07.64.09.91 0 .11.07.22.24.22.22 0 .22-.27.22-.49 0-.16.07-1.18.09-1.67.11-1.29.2-1.69.2-1.84s-.07-.2-.18-.2-.22.11-.4.31c-.22.27-.6.33-1.2.38-.58.07-3.49.07-4.02.07-.16 0-.18-.11-.18-.29v-6.35c0-.18.04-.27.18-.27.49 0 3.13.04 3.55.11 1.27.16 1.51.44 1.69.91.13.29.16.71.16.89 0 .24.04.36.22.36s.24-.16.27-.27c.04-.31.09-1.42.11-1.67.09-1.15.2-1.47.2-1.64 0-.11-.02-.22-.13-.22-.13 0-.29.07-.4.11-.22.04-.62.09-1.09.13-.49.04-5.48.04-6.3.04-.33 0-.91-.04-1.58-.07-.62 0-1.35-.02-2.04-.02-.38 0-.56.04-.56.22s.16.24.44.24c.33 0 .78.02.98.07.82.18 1.02.58 1.09 1.44.04.8.04 1.51.04 5.33v4.43zm25.73 7.66c1.33 0 2.75-.22 4-1.04 1.82-1.18 2.38-2.91 2.38-4.37 0-2.4-1.09-4.13-4.13-6.42l-.71-.53c-2.09-1.58-2.66-2.46-2.66-3.62 0-1.51 1.13-2.6 3-2.6 1.64 0 2.38.75 2.75 1.24.51.64.64 1.44.64 1.67 0 .29.09.44.24.44.22 0 .29-.2.29-.75 0-1.95.09-2.69.09-3.02 0-.18-.11-.24-.33-.29-.68-.18-1.72-.45-3.36-.45-3.51 0-5.82 2-5.82 4.75 0 2.04.95 3.82 3.73 5.97l1.15.91c2.09 1.64 2.46 2.8 2.46 4.02 0 1.33-1.11 2.86-3.37 2.86-1.55 0-3.04-.67-3.6-2.53-.13-.42-.22-.95-.22-1.29 0-.2-.02-.42-.27-.42-.2 0-.27.27-.29.64-.02.4-.13 1.93-.13 3.31 0 .55.09.67.49.84 1.07.5 2.2.68 3.67.68zM110 100.37c-.07 0-.16-.07-.16-.18v-.53c0-3.82 0-4.53.07-5.33.04-.89.24-1.31.93-1.44.29-.04.51-.07.71-.07.31 0 .47-.07.47-.24 0-.18-.18-.22-.53-.22-.98 0-2.58.09-3.17.09-.67 0-2.26-.09-3.62-.09-.36 0-.53.04-.53.22s.16.24.44.24c.33 0 .78.02.98.07.82.18 1.02.58 1.07 1.44.07.8.07 1.51.07 5.33v4.42c0 2.33 0 4.31-.13 5.37-.09.73-.22 1.29-.73 1.38-.22.04-.53.11-.91.11-.29 0-.4.07-.4.2 0 .18.18.24.51.24 1 0 2.6-.07 3.17-.07.69 0 2.29.07 3.93.07.29 0 .49-.07.49-.24 0-.13-.11-.2-.4-.2-.38 0-.93-.07-1.29-.11-.75-.09-.91-.64-.98-1.35-.13-1.09-.13-3.06-.13-5.39v-2.2c0-.13.09-.16.16-.16h9.61c.09 0 .16.04.16.16v2.2c0 2.33 0 4.31-.13 5.37-.09.73-.22 1.29-.73 1.38-.22.04-.51.11-.89.11-.31 0-.42.07-.42.2 0 .18.18.24.53.24 1 0 2.58-.07 3.15-.07.71 0 2.29.07 3.93.07.29 0 .49-.07.49-.24 0-.13-.11-.2-.4-.2-.38 0-.93-.07-1.27-.11-.75-.09-.91-.64-1-1.35-.11-1.09-.11-3.06-.11-5.39v-4.42c0-3.82 0-4.53.04-5.33.04-.89.24-1.31.93-1.44.29-.04.53-.07.73-.07.29 0 .44-.07.44-.24 0-.18-.18-.22-.53-.22-.98 0-2.55.09-3.15.09-.69 0-2.26-.09-3.64-.09-.36 0-.51.04-.51.22s.13.24.42.24c.36 0 .78.02.98.07.82.18 1.02.58 1.09 1.44.04.8.04 1.51.04 5.33v.53c0 .11-.07.18-.16.18H110zm21.16 3.71c0 2.33 0 4.31-.11 5.37-.11.73-.22 1.29-.73 1.38-.22.04-.53.11-.91.11-.31 0-.4.07-.4.2 0 .18.18.24.51.24.49 0 1.15-.04 1.73-.04.6-.02 1.15-.02 1.42-.02.75 0 1.55.02 2.62.07 1.09.02 2.46.07 4.35.07.95 0 1.2 0 1.38-.64.11-.51.31-2.22.31-2.8 0-.24 0-.44-.2-.44-.18 0-.22.09-.27.38-.18 1.02-.49 1.55-1.13 1.86-.67.29-1.71.29-2.38.29-2.55 0-2.97-.38-3.02-2.11-.02-.73 0-3.04 0-3.91v-1.98c0-.16.02-.27.16-.27.6 0 3.09.04 3.57.09.93.09 1.29.47 1.4.98.09.33.09.64.11.91 0 .11.04.22.22.22.22 0 .22-.27.22-.49 0-.16.09-1.18.11-1.67.09-1.29.2-1.69.2-1.84s-.07-.2-.18-.2c-.13 0-.22.11-.4.31-.22.27-.6.33-1.22.38-.58.07-3.46.07-4.02.07-.16 0-.18-.11-.18-.29v-6.35c0-.18.04-.27.18-.27.51 0 3.15.04 3.57.11 1.27.16 1.51.44 1.69.91.13.29.16.71.16.89 0 .24.04.36.22.36s.22-.16.24-.27c.07-.31.11-1.42.13-1.67.07-1.15.2-1.47.2-1.64 0-.11-.02-.22-.16-.22-.11 0-.27.07-.4.11-.2.04-.6.09-1.09.13-.47.04-5.48.04-6.28.04-.36 0-.93-.04-1.58-.07-.64 0-1.38-.02-2.04-.02-.38 0-.55.04-.55.22s.16.24.42.24c.36 0 .78.02.98.07.84.18 1.04.58 1.09 1.44.04.8.04 1.51.04 5.33v4.43zm15.91 0c0 2.33 0 4.31-.13 5.37-.09.73-.22 1.29-.73 1.38-.22.04-.53.11-.91.11-.29 0-.4.07-.4.2 0 .18.18.24.51.24 1 0 2.6-.07 3.06-.07.38 0 2.24.07 3.71.07.33 0 .49-.07.49-.24 0-.13-.09-.2-.29-.2-.31 0-.87-.07-1.24-.11-.75-.09-.89-.64-.98-1.38-.13-1.07-.13-3.04-.13-5.39v-.36c0-.16.09-.2.22-.2l2.18.04c.18 0 .33.04.47.18.31.38 1.47 2.09 2.49 3.49 1.4 1.93 2.35 3.11 3.44 3.69.64.36 1.29.49 2.69.49h2.4c.31 0 .47-.04.47-.24 0-.13-.09-.2-.29-.2s-.42-.04-.71-.09c-.38-.07-1.4-.24-2.82-1.71-1.49-1.55-3.22-3.8-5.46-6.62 2.55-2.06 3.33-3.77 3.33-5.64 0-1.69-1-2.97-1.71-3.44-1.35-.93-3.04-1.09-4.64-1.09-.78 0-2.69.09-3.55.09-.51 0-2.11-.09-3.44-.09-.38 0-.55.04-.55.22s.16.24.44.24c.33 0 .78.02.98.07.82.18 1.02.58 1.07 1.44.07.8.07 1.51.07 5.33v4.42zM150.03 94c0-.2.07-.31.24-.36.24-.07.69-.11 1.33-.11 1.49 0 3.84 1.04 3.84 4.62 0 2.06-.73 3.22-1.49 3.77-.44.33-.78.42-1.78.42-.64 0-1.4-.07-1.91-.24-.18-.09-.24-.18-.24-.47V94zm16.03 10.08c0 2.33 0 4.31-.11 5.37-.11.73-.22 1.29-.73 1.38-.22.04-.53.11-.91.11-.29 0-.4.07-.4.2 0 .18.18.24.51.24 1 0 2.58-.07 3.06-.07.38 0 2.24.07 3.71.07.31 0 .49-.07.49-.24 0-.13-.09-.2-.29-.2-.31 0-.87-.07-1.24-.11-.75-.09-.91-.64-.98-1.38-.13-1.07-.13-3.04-.13-5.39v-.36c0-.16.09-.2.2-.2l2.2.04c.18 0 .33.04.44.18.33.38 1.49 2.09 2.49 3.49 1.42 1.93 2.38 3.11 3.46 3.69.64.36 1.29.49 2.69.49h2.4c.29 0 .47-.04.47-.24 0-.13-.09-.2-.29-.2s-.44-.04-.71-.09c-.38-.07-1.42-.24-2.82-1.71-1.49-1.55-3.22-3.8-5.46-6.62 2.53-2.06 3.33-3.77 3.33-5.64 0-1.69-1.02-2.97-1.71-3.44-1.38-.93-3.06-1.09-4.64-1.09-.78 0-2.69.09-3.55.09-.53 0-2.11-.09-3.44-.09-.38 0-.55.04-.55.22s.16.24.42.24c.36 0 .78.02.98.07.84.18 1.04.58 1.09 1.44.04.8.04 1.51.04 5.33v4.42zM169.03 94c0-.2.04-.31.22-.36.27-.07.71-.11 1.33-.11 1.49 0 3.86 1.04 3.86 4.62 0 2.06-.73 3.22-1.49 3.77-.44.33-.78.42-1.78.42-.64 0-1.4-.07-1.93-.24-.18-.09-.22-.18-.22-.47V94zm16.03 10.08c0 2.44 0 4.44-.13 5.48-.07.73-.22 1.18-.71 1.27-.24.04-.53.11-.91.11-.31 0-.4.07-.4.2 0 .18.18.24.49.24 1.02 0 2.6-.07 3.17-.07.69 0 2.26.07 3.93.07.27 0 .47-.07.47-.24 0-.13-.11-.2-.4-.2-.38 0-.93-.07-1.27-.11-.75-.09-.93-.56-1.02-1.24-.09-1.07-.09-3.06-.09-5.51v-4.42c0-3.82 0-4.53.04-5.33.04-.89.24-1.31.93-1.44.29-.04.51-.07.75-.07s.4-.07.4-.27c0-.16-.2-.2-.53-.2-.95 0-2.44.09-3.06.09-.73 0-2.31-.09-3.26-.09-.42 0-.62.04-.62.2 0 .2.16.27.42.27.29 0 .62.02.89.09.55.13.82.56.87 1.42.04.8.04 1.51.04 5.33v4.42zm14.54-2.04c0-.16.07-.22.18-.22.42 0 3.11 0 3.73.09.78.09 1.15.56 1.29.91.09.29.16.6.16.78 0 .18.04.33.2.33.24 0 .24-.24.24-.47 0-.18.04-1.33.09-1.84.09-.78.22-1.4.22-1.55 0-.16-.07-.22-.16-.22-.16 0-.2.09-.33.24-.24.33-.6.42-1.09.44-.36.04-.69.04-1.13.04l-3.22.02c-.16 0-.18-.09-.18-.22v-6.3c0-.27.09-.36.22-.36l3.88.09c.95.02 1.49.4 1.66.75.16.36.16.75.16.95.02.27.07.4.24.4.18 0 .22-.16.24-.36.07-.31.11-1.78.13-2.04.07-.64.2-.95.2-1.13 0-.11-.07-.22-.18-.22-.13 0-.24.11-.4.16-.24.07-.56.07-1.04.09-.58.04-5.68.04-6.64.04-.36 0-.93-.04-1.58-.07-.67 0-1.4-.02-2.04-.02-.38 0-.58.04-.58.24 0 .16.18.22.42.22.36 0 .78.02.98.07.84.18 1.04.58 1.09 1.44.04.8.04 1.51.04 5.33v4.42c0 2.42 0 4.31-.11 5.37-.11.73-.22 1.29-.73 1.38-.22.04-.53.11-.91.11-.27 0-.38.07-.38.2 0 .2.18.24.53.24.95 0 2.53-.07 3.2-.07.64 0 2.24.07 3.82.07.38 0 .55-.07.55-.24 0-.13-.09-.2-.42-.2-.36 0-.91-.07-1.27-.11-.75-.09-.91-.64-.98-1.38-.13-1.07-.13-2.95-.13-5.37v-2.03zm15.65 0c0-.16.04-.22.18-.22.42 0 3.11 0 3.73.09.78.09 1.15.56 1.29.91.09.29.16.6.16.78 0 .18.04.33.2.33.24 0 .24-.24.24-.47 0-.18.04-1.33.09-1.84.09-.78.2-1.4.2-1.55 0-.16-.04-.22-.13-.22-.16 0-.2.09-.33.24-.24.33-.6.42-1.09.44-.36.04-.71.04-1.13.04l-3.22.02c-.16 0-.18-.09-.18-.22v-6.3c0-.27.09-.36.22-.36l3.88.09c.95.02 1.49.4 1.66.75.16.36.16.75.16.95.02.27.07.4.24.4.18 0 .22-.16.24-.36.07-.31.11-1.78.13-2.04.07-.64.2-.95.2-1.13 0-.11-.07-.22-.18-.22-.13 0-.24.11-.4.16-.24.07-.56.07-1.04.09-.58.04-5.68.04-6.64.04-.36 0-.93-.04-1.58-.07-.67 0-1.4-.02-2.04-.02-.38 0-.58.04-.58.24 0 .16.18.22.42.22.36 0 .78.02.98.07.84.18 1.04.58 1.09 1.44.04.8.04 1.51.04 5.33v4.42c0 2.42 0 4.31-.11 5.37-.11.73-.22 1.29-.73 1.38-.22.04-.53.11-.91.11-.27 0-.38.07-.38.2 0 .2.18.24.53.24.95 0 2.53-.07 3.2-.07.64 0 2.24.07 3.82.07.38 0 .56-.07.56-.24 0-.13-.09-.2-.42-.2-.36 0-.91-.07-1.27-.11-.75-.09-.91-.64-.98-1.38-.13-1.07-.13-2.95-.13-5.37v-2.03zM2.26 129.05c.56 0 1.18-.09 1.71-.42.78-.51 1.02-1.27 1.02-1.89 0-1.02-.47-1.78-1.78-2.75l-.31-.22c-.89-.69-1.13-1.07-1.13-1.55 0-.64.49-1.11 1.29-1.11.69 0 1 .31 1.18.53.22.27.27.6.27.71s.04.18.11.18c.09 0 .11-.07.11-.31 0-.84.04-1.15.04-1.31 0-.07-.04-.09-.13-.11-.29-.09-.73-.2-1.44-.2-1.51 0-2.49.87-2.49 2.04 0 .89.4 1.64 1.6 2.55l.49.4c.89.71 1.07 1.2 1.07 1.73 0 .56-.49 1.22-1.44 1.22-.69 0-1.31-.29-1.55-1.09-.04-.18-.09-.4-.09-.56 0-.09-.02-.18-.11-.18s-.13.11-.13.29c-.02.16-.04.82-.04 1.4 0 .24.02.29.2.38.44.21.93.27 1.55.27zm9.22-3.26c0 .98 0 1.84-.07 2.29-.02.31-.09.55-.31.6-.09.02-.22.04-.38.04-.13 0-.18.02-.18.09 0 .07.07.11.22.11.42 0 1.11-.04 1.35-.04.31 0 .98.04 1.69.04.13 0 .2-.04.2-.11s-.04-.09-.16-.09c-.18 0-.4-.02-.56-.04-.33-.04-.4-.29-.42-.58-.04-.47-.04-1.33-.04-2.31v-4.44l1.35.04c.95.02 1.24.31 1.27.6l.02.11c0 .18.02.22.11.22.07 0 .09-.07.09-.18 0-.27.04-1.02.04-1.24 0-.16-.02-.22-.09-.22-.04 0-.13.02-.29.04-.18.02-.4.07-.75.07h-4.26c-.36 0-.78-.02-1.09-.07-.27-.02-.38-.13-.47-.13-.07 0-.09.07-.13.22-.02.09-.22 1.07-.22 1.24 0 .11.02.16.11.16.07 0 .09-.04.11-.13.02-.07.07-.2.18-.38.18-.22.42-.29 1.04-.31l1.62-.04v4.44zm10.9.31c.04 0 .09.02.11.07l.84 2.29c.07.13-.02.22-.09.24-.11.02-.16.04-.16.11s.13.07.33.09c.87.02 1.64.02 2.04.02.4 0 .49-.02.49-.11s-.04-.09-.13-.09c-.13 0-.29-.02-.47-.04-.22-.07-.53-.22-.93-1.18-.71-1.64-2.42-6.04-2.69-6.64-.11-.24-.18-.33-.27-.33-.11 0-.18.11-.31.42l-2.71 6.77c-.22.53-.42.91-.91.98-.09 0-.24.02-.33.02s-.13.02-.13.09c0 .09.07.11.2.11.55 0 1.15-.04 1.29-.04.33 0 .8.04 1.13.04.11 0 .18-.02.18-.11 0-.07-.02-.09-.16-.09h-.16c-.33 0-.44-.13-.44-.33 0-.13.07-.4.18-.67l.58-1.53c.02-.07.04-.09.09-.09h2.43zm-2.2-.53c-.04 0-.04-.04-.04-.09l1-2.64c0-.04.02-.11.07-.11.02 0 .04.07.04.11l.98 2.66c0 .02 0 .07-.07.07h-1.98zm9.39.22c0 1.04 0 1.89-.07 2.35-.02.31-.09.49-.31.53-.09.02-.22.04-.38.04-.13 0-.18.02-.18.09 0 .07.07.11.22.11.42 0 1.11-.04 1.35-.04.29 0 .98.04 1.69.04.11 0 .2-.04.2-.11s-.04-.09-.18-.09c-.16 0-.4-.02-.55-.04-.31-.04-.4-.24-.42-.53-.04-.47-.04-1.31-.04-2.35v-1.91c0-1.64 0-1.93.02-2.29.02-.38.11-.56.4-.62.13-.02.22-.02.33-.02.09 0 .16-.02.16-.11 0-.07-.09-.09-.22-.09-.4 0-1.04.04-1.31.04-.31 0-1-.04-1.4-.04-.18 0-.27.02-.27.09 0 .09.07.11.18.11.13 0 .27 0 .38.04.24.04.36.24.38.6.02.36.02.64.02 2.29v1.91zm7.84-2.89h.04c.18.22 1.38 1.55 2.55 2.73 1.13 1.11 2.51 2.53 3.2 3.17.11.11.24.22.36.22s.13-.09.13-.33l.13-6.79c0-.6.09-.84.4-.93.13-.02.22-.02.31-.02.13 0 .2-.04.2-.09 0-.09-.11-.11-.24-.11-.53 0-.93.04-1.07.04-.22 0-.73-.04-1.29-.04-.18 0-.29.02-.29.11 0 .04.04.09.18.09.16 0 .4 0 .56.07.27.11.36.31.38.98l.11 4.84H43c-.18-.18-1.62-1.73-2.35-2.46-1.58-1.55-3.22-3.33-3.35-3.46-.18-.2-.29-.33-.4-.33s-.13.16-.13.36l-.11 6.39c0 .93-.04 1.27-.33 1.33-.16.04-.33.07-.49.07-.11 0-.18.02-.18.09 0 .09.11.11.24.11.56 0 1.07-.04 1.18-.04.2 0 .62.04 1.33.04.16 0 .24-.02.24-.11 0-.07-.07-.09-.18-.09-.18 0-.38-.02-.56-.09-.22-.07-.36-.36-.38-1.18l-.12-4.57zm12.21 2.89c0 .98 0 1.84-.04 2.29-.04.31-.09.55-.31.6-.11.02-.22.04-.4.04-.13 0-.16.02-.16.09 0 .07.07.11.2.11.22 0 .51-.02.75-.02.24-.02.49-.02.6-.02.33 0 .67.02 1.13.04.47 0 1.07.02 1.86.02.42 0 .51 0 .58-.29.07-.2.16-.93.16-1.18 0-.11 0-.2-.09-.2s-.11.04-.13.16c-.07.44-.2.67-.47.8-.29.13-.75.13-1.02.13-1.11 0-1.27-.16-1.29-.91-.02-.31 0-1.31 0-1.67v-.87c0-.07 0-.11.04-.11.27 0 1.33.02 1.53.04.4.04.56.2.62.42.02.13.02.29.04.38 0 .07.02.11.09.11.09 0 .09-.13.09-.2 0-.09.04-.51.04-.73.04-.56.09-.73.09-.8 0-.04-.02-.07-.07-.07-.07 0-.11.04-.18.13-.09.11-.27.13-.51.16-.24.02-1.49.02-1.73.02-.07 0-.07-.04-.07-.11v-2.73c0-.09.02-.11.07-.11.22 0 1.35.02 1.53.04.53.07.64.2.73.38.04.13.04.33.04.4 0 .09.02.16.11.16.07 0 .09-.07.11-.13.02-.11.04-.6.04-.71.04-.49.09-.62.09-.69 0-.07 0-.11-.07-.11-.04 0-.11.04-.18.04-.09.02-.24.04-.47.07-.2.02-2.35.02-2.69.02-.16 0-.4-.02-.69-.02-.27 0-.58-.02-.87-.02-.16 0-.24.02-.24.11 0 .07.07.09.18.09.16 0 .36 0 .42.02.36.09.44.27.47.62.02.36.02.64.02 2.29v1.92zm9.3 0c0 .98 0 1.84-.04 2.29-.04.31-.11.55-.31.6-.11.02-.22.04-.4.04-.13 0-.18.02-.18.09 0 .07.09.11.22.11.22 0 .51-.02.75-.02.24-.02.49-.02.6-.02.29 0 .67.04 1.07.07.42.04.84.07 1.24.07 2 0 3.11-.75 3.62-1.27.6-.62 1.18-1.66 1.18-3.02 0-1.29-.51-2.18-1.04-2.73-1.18-1.24-3-1.24-4.33-1.24-.64 0-1.33.04-1.67.04-.31 0-.98-.04-1.55-.04-.16 0-.24.02-.24.11 0 .07.07.09.18.09.16 0 .33 0 .42.02.36.09.44.27.47.62.02.36.02.64.02 2.29v1.9zm1.35-2.09v-2.15c0-.11.04-.18.13-.22.09-.02.49-.07.71-.07.84 0 2.06.13 3.06 1.09.47.44 1.04 1.31 1.04 2.69 0 1.11-.22 2.09-.91 2.69-.64.56-1.38.78-2.49.78-.84 0-1.27-.22-1.42-.42-.09-.13-.11-.56-.11-.82-.02-.2-.02-1.04-.02-2.18v-1.39zm21.03 3.31v-1.31c.02-.38.13-.56.42-.6.13-.02.2-.04.29-.04.07 0 .13-.02.13-.09 0-.09-.07-.11-.22-.11-.36 0-.91.04-1.24.04s-1.02-.04-1.58-.04c-.16 0-.22.02-.22.11 0 .07.07.09.16.09.16 0 .33.02.42.04.36.07.47.24.47.6.02.33.02.73.02 1.29v1c0 .2-.04.33-.22.4-.24.13-.62.13-.91.13-2.29 0-3.75-1.75-3.75-4.06 0-1.33.38-2.13 1-2.64.75-.62 1.53-.67 2.13-.67 1.22 0 2.09.49 2.4.84.29.29.33.64.38.89 0 .09.02.13.11.13.07 0 .11-.04.11-.22 0-1.35.07-1.64.07-1.78 0-.07-.02-.11-.16-.11-.24-.02-.62-.09-.84-.13-.22-.04-1.15-.18-1.91-.18-.91 0-1.86.09-2.91.71-.98.6-1.86 1.8-1.86 3.53 0 2.97 2.33 4.22 4.97 4.22.84 0 1.91-.11 2.6-.47.13-.09.16-.11.16-.4v-1.17zm6.83-3.13c0-1.64 0-1.93.02-2.29.02-.38.11-.56.4-.62.13-.02.29-.02.42-.02s.2-.02.2-.09c0-.09-.09-.11-.24-.11-.42 0-1.2.04-1.47.04-.29 0-.95-.04-1.47-.04-.18 0-.24.02-.24.11 0 .07.07.09.18.09.16 0 .27 0 .36.02.36.09.44.27.47.62.02.36.02.64.02 2.29v1.91c0 .98 0 1.84-.04 2.29-.04.31-.11.55-.31.6-.11.02-.24.04-.4.04-.13 0-.18.02-.18.09 0 .07.09.11.22.11.22 0 .49-.02.75-.02.24-.02.49-.02.6-.02.44 0 .84.02 1.33.04.47 0 1.04.02 1.82.02.56 0 .6-.04.67-.29.09-.31.18-1.13.18-1.24 0-.13-.02-.18-.09-.18-.09 0-.11.07-.13.16-.02.2-.13.51-.27.64-.27.29-.69.31-1.27.31-.84 0-1.13-.09-1.31-.24-.22-.2-.22-.93-.22-2.31v-1.91zm10.73 2.22c.04 0 .07.02.09.07l.87 2.29c.07.13-.02.22-.09.24-.11.02-.16.04-.16.11s.13.07.33.09c.87.02 1.64.02 2.04.02.4 0 .49-.02.49-.11s-.07-.09-.13-.09c-.13 0-.31-.02-.47-.04-.22-.07-.53-.22-.95-1.18-.69-1.64-2.4-6.04-2.66-6.64-.11-.24-.18-.33-.27-.33-.11 0-.18.11-.31.42l-2.71 6.77c-.22.53-.42.91-.91.98-.09 0-.24.02-.33.02s-.13.02-.13.09c0 .09.07.11.2.11.56 0 1.15-.04 1.27-.04.36 0 .8.04 1.15.04.11 0 .18-.02.18-.11 0-.07-.02-.09-.16-.09h-.16c-.33 0-.44-.13-.44-.33 0-.13.07-.4.18-.67l.58-1.53c.02-.07.04-.09.09-.09h2.41zm-2.2-.53c-.04 0-.07-.04-.04-.09l1-2.64c0-.04.02-.11.07-.11.02 0 .02.07.04.11l.98 2.66c0 .02 0 .07-.07.07h-1.98zm10.26 3.48c.58 0 1.18-.09 1.71-.42.78-.51 1.02-1.27 1.02-1.89 0-1.02-.47-1.78-1.78-2.75l-.29-.22c-.91-.69-1.15-1.07-1.15-1.55 0-.64.49-1.11 1.29-1.11.71 0 1.02.31 1.18.53.22.27.29.6.29.71s.02.18.11.18c.07 0 .11-.07.11-.31 0-.84.04-1.15.04-1.31 0-.07-.07-.09-.16-.11-.29-.09-.73-.2-1.44-.2-1.49 0-2.49.87-2.49 2.04 0 .89.42 1.64 1.6 2.55l.49.4c.91.71 1.07 1.2 1.07 1.73 0 .56-.47 1.22-1.44 1.22-.67 0-1.31-.29-1.55-1.09-.04-.18-.09-.4-.09-.56 0-.09 0-.18-.11-.18-.09 0-.11.11-.13.29 0 .16-.04.82-.04 1.4 0 .24.02.29.2.38.45.21.93.27 1.56.27zm8.76 0c.56 0 1.18-.09 1.71-.42.78-.51 1.02-1.27 1.02-1.89 0-1.02-.47-1.78-1.78-2.75l-.31-.22c-.89-.69-1.13-1.07-1.13-1.55 0-.64.49-1.11 1.29-1.11.69 0 1 .31 1.18.53.22.27.27.6.27.71s.04.18.11.18c.09 0 .11-.07.11-.31 0-.84.04-1.15.04-1.31 0-.07-.04-.09-.13-.11-.29-.09-.73-.2-1.44-.2-1.51 0-2.49.87-2.49 2.04 0 .89.4 1.64 1.6 2.55l.49.4c.89.71 1.07 1.2 1.07 1.73 0 .56-.49 1.22-1.44 1.22-.69 0-1.31-.29-1.55-1.09-.04-.18-.09-.4-.09-.56 0-.09-.02-.18-.11-.18s-.13.11-.13.29c-.02.16-.04.82-.04 1.4 0 .24.02.29.2.38.44.21.93.27 1.55.27zm11.99 0c.58 0 1.18-.09 1.71-.42.78-.51 1.02-1.27 1.02-1.89 0-1.02-.47-1.78-1.78-2.75l-.29-.22c-.91-.69-1.15-1.07-1.15-1.55 0-.64.49-1.11 1.29-1.11.71 0 1.02.31 1.18.53.22.27.29.6.29.71s.02.18.11.18c.07 0 .11-.07.11-.31 0-.84.04-1.15.04-1.31 0-.07-.07-.09-.16-.11-.29-.09-.73-.2-1.44-.2-1.49 0-2.49.87-2.49 2.04 0 .89.42 1.64 1.6 2.55l.49.4c.91.71 1.07 1.2 1.07 1.73 0 .56-.47 1.22-1.44 1.22-.67 0-1.31-.29-1.55-1.09-.04-.18-.09-.4-.09-.56 0-.09 0-.18-.11-.18-.09 0-.11.11-.13.29 0 .16-.04.82-.04 1.4 0 .24.02.29.2.38.45.21.94.27 1.56.27zm7.79-3.26c0 .98 0 1.84-.07 2.29-.04.31-.09.55-.31.6-.09.02-.22.04-.38.04-.13 0-.18.02-.18.09 0 .07.07.11.22.11.42 0 1.11-.04 1.35-.04.27 0 .95.04 1.66.04.11 0 .2-.04.2-.11s-.04-.09-.16-.09c-.18 0-.4-.02-.55-.04-.33-.04-.4-.29-.42-.58-.07-.47-.07-1.33-.07-2.31v-4.33c0-.11.04-.18.09-.2.11-.02.27-.04.42-.04.24 0 .69.07 1.09.42.6.53.62 1.27.62 1.62 0 1.11-.82 1.78-1.44 1.78-.22 0-.29.04-.29.13 0 .07.07.07.13.09h.22c1.53 0 2.64-1.07 2.64-2.6 0-.58-.29-1.07-.53-1.29-.18-.16-.67-.62-2-.62-.51 0-1.13.04-1.58.04-.29 0-.98-.04-1.55-.04-.16 0-.24.02-.24.11 0 .07.07.09.2.09.16 0 .33 0 .42.02.36.09.44.27.47.62.02.36.02.64.02 2.29v1.91zm9.55 0c0 .98 0 1.84-.07 2.29-.04.31-.09.55-.31.6-.09.02-.22.04-.38.04-.13 0-.18.02-.18.09 0 .07.07.11.22.11.2 0 .49-.02.73-.02.27-.02.49-.02.62-.02.31 0 .64.02 1.11.04.47 0 1.07.02 1.86.02.42 0 .51 0 .6-.29.04-.2.13-.93.13-1.18 0-.11 0-.2-.09-.2-.07 0-.09.04-.11.16-.09.44-.2.67-.49.8s-.73.13-1.02.13c-1.09 0-1.27-.16-1.29-.91-.02-.31 0-1.31 0-1.67v-.87c0-.07 0-.11.07-.11.27 0 1.33.02 1.53.04.4.04.56.2.6.42.04.13.04.29.04.38 0 .07.02.11.09.11.11 0 .11-.13.11-.2 0-.09.02-.51.04-.73.04-.56.09-.73.09-.8 0-.04-.04-.07-.09-.07s-.09.04-.18.13c-.09.11-.24.13-.51.16-.24.02-1.49.02-1.73.02-.07 0-.07-.04-.07-.11v-2.73c0-.09.02-.11.07-.11.22 0 1.35.02 1.53.04.56.07.67.2.73.38.04.13.07.33.07.4 0 .09.02.16.09.16.09 0 .11-.07.11-.13.02-.11.04-.6.07-.71.02-.49.07-.62.07-.69 0-.07 0-.11-.07-.11-.04 0-.11.04-.16.04-.09.02-.27.04-.47.07s-2.35.02-2.71.02c-.16 0-.4-.02-.67-.02s-.6-.02-.89-.02c-.16 0-.22.02-.22.11 0 .07.07.09.18.09.16 0 .33 0 .42.02.36.09.44.27.47.62.02.36.02.64.02 2.29v1.92zm13.17 3.26c.69 0 1.51-.07 1.93-.24.18-.07.22-.13.29-.31.11-.36.22-1.31.22-1.42 0-.09-.02-.18-.09-.18-.09 0-.11.04-.13.22-.04.2-.2.51-.38.71-.42.49-1 .6-1.98.6-1.44 0-3.4-1.27-3.4-3.84 0-1.04.2-2.06 1-2.8.47-.42 1.09-.67 2.02-.67 1 0 1.84.29 2.2.67.27.29.4.67.42 1 0 .16.02.24.11.24s.11-.09.13-.24c.02-.22 0-.82.02-1.18.02-.38.04-.51.04-.6 0-.07-.02-.11-.16-.11-.31-.04-.67-.13-1.07-.2-.51-.07-.91-.11-1.58-.11-1.6 0-2.62.44-3.4 1.15-1.04.95-1.27 2.22-1.27 2.95 0 1.04.27 2.26 1.33 3.17 1.01.88 2.26 1.19 3.75 1.19zm7.23-3.26c0 1.04 0 1.89-.04 2.35-.04.31-.11.49-.31.53-.11.02-.22.04-.4.04-.13 0-.18.02-.18.09 0 .07.09.11.22.11.44 0 1.11-.04 1.35-.04.31 0 .98.04 1.69.04.13 0 .2-.04.2-.11s-.04-.09-.16-.09c-.18 0-.4-.02-.55-.04-.33-.04-.4-.24-.44-.53-.04-.47-.04-1.31-.04-2.35v-1.91c0-1.64 0-1.93.02-2.29.02-.38.11-.56.4-.62.13-.02.22-.02.33-.02.11 0 .18-.02.18-.11 0-.07-.09-.09-.22-.09-.42 0-1.07.04-1.33.04-.31 0-.98-.04-1.4-.04-.18 0-.27.02-.27.09 0 .09.07.11.18.11.13 0 .27 0 .4.04.22.04.33.24.36.6.02.36.02.64.02 2.29v1.91zM175.62 126.1c.04 0 .07.02.09.07l.87 2.29c.07.13-.02.22-.09.24-.11.02-.16.04-.16.11s.13.07.33.09c.87.02 1.64.02 2.04.02.4 0 .49-.02.49-.11s-.07-.09-.13-.09c-.13 0-.31-.02-.47-.04-.22-.07-.53-.22-.95-1.18-.69-1.64-2.4-6.04-2.66-6.64-.11-.24-.18-.33-.27-.33-.11 0-.18.11-.31.42l-2.71 6.77c-.22.53-.42.91-.91.98-.09 0-.24.02-.33.02s-.13.02-.13.09c0 .09.07.11.2.11.55 0 1.15-.04 1.27-.04.36 0 .8.04 1.15.04.11 0 .18-.02.18-.11 0-.07-.02-.09-.16-.09h-.16c-.33 0-.44-.13-.44-.33 0-.13.07-.4.18-.67l.58-1.53c.02-.07.04-.09.09-.09h2.41zm-2.19-.53c-.04 0-.07-.04-.04-.09l1-2.64c0-.04.02-.11.07-.11.02 0 .02.07.04.11l.98 2.66c0 .02 0 .07-.07.07h-1.98zm10.72-1.69c0-1.64 0-1.93.02-2.29.02-.38.11-.56.4-.62.13-.02.31-.02.42-.02.13 0 .2-.02.2-.09 0-.09-.07-.11-.22-.11-.42 0-1.22.04-1.47.04-.29 0-.98-.04-1.49-.04-.16 0-.22.02-.22.11 0 .07.04.09.18.09.13 0 .27 0 .36.02.36.09.44.27.47.62.02.36.02.64.02 2.29v1.91c0 .98 0 1.84-.07 2.29-.04.31-.09.55-.31.6-.09.02-.22.04-.38.04-.13 0-.18.02-.18.09 0 .07.07.11.22.11.2 0 .49-.02.73-.02.27-.02.49-.02.62-.02.44 0 .82.02 1.31.04.49 0 1.04.02 1.82.02.58 0 .62-.04.69-.29.09-.31.16-1.13.16-1.24 0-.13 0-.18-.09-.18s-.11.07-.11.16c-.02.2-.16.51-.29.64-.27.29-.69.31-1.27.31-.82 0-1.11-.09-1.29-.24-.24-.2-.24-.93-.24-2.31v-1.91zm7.68 1.91c0 1.04 0 1.89-.07 2.35-.02.31-.09.49-.31.53-.09.02-.22.04-.4.04-.11 0-.16.02-.16.09 0 .07.07.11.2.11.44 0 1.11-.04 1.38-.04.29 0 .95.04 1.67.04.13 0 .22-.04.22-.11s-.07-.09-.18-.09c-.16 0-.4-.02-.55-.04-.31-.04-.4-.24-.42-.53-.04-.47-.04-1.31-.04-2.35v-1.91c0-1.64 0-1.93.02-2.29.02-.38.11-.56.4-.62.13-.02.2-.02.31-.02.11 0 .18-.02.18-.11 0-.07-.09-.09-.22-.09-.42 0-1.04.04-1.31.04-.33 0-1-.04-1.42-.04-.16 0-.24.02-.24.09 0 .09.07.11.18.11.11 0 .27 0 .38.04.24.04.36.24.38.6.02.36.02.64.02 2.29v1.91zm8.33 3.26c.58 0 1.18-.09 1.71-.42.78-.51 1.02-1.27 1.02-1.89 0-1.02-.47-1.78-1.78-2.75l-.29-.22c-.91-.69-1.15-1.07-1.15-1.55 0-.64.49-1.11 1.29-1.11.71 0 1.02.31 1.18.53.22.27.29.6.29.71s.02.18.11.18.11-.07.11-.31c0-.84.04-1.15.04-1.31 0-.07-.07-.09-.16-.11-.29-.09-.73-.2-1.44-.2-1.49 0-2.49.87-2.49 2.04 0 .89.42 1.64 1.6 2.55l.49.4c.91.71 1.07 1.2 1.07 1.73 0 .56-.47 1.22-1.44 1.22-.67 0-1.31-.29-1.55-1.09-.04-.18-.09-.4-.09-.56 0-.09 0-.18-.11-.18-.09 0-.11.11-.13.29 0 .16-.04.82-.04 1.4 0 .24.02.29.2.38.45.21.93.27 1.56.27zm9.21-3.26c0 .98 0 1.84-.04 2.29-.04.31-.11.55-.31.6-.11.02-.22.04-.4.04-.13 0-.18.02-.18.09 0 .07.09.11.22.11.44 0 1.11-.04 1.35-.04.31 0 1 .04 1.71.04.11 0 .2-.04.2-.11s-.04-.09-.18-.09c-.16 0-.4-.02-.56-.04-.31-.04-.38-.29-.42-.58-.04-.47-.04-1.33-.04-2.31v-4.44l1.35.04c.98.02 1.27.31 1.29.6v.11c.02.18.04.22.11.22s.09-.07.11-.18c0-.27.02-1.02.02-1.24 0-.16 0-.22-.09-.22-.04 0-.11.02-.29.04-.16.02-.4.07-.73.07h-4.28c-.36 0-.75-.02-1.07-.07-.29-.02-.38-.13-.47-.13-.07 0-.11.07-.13.22-.02.09-.22 1.07-.22 1.24 0 .11.02.16.09.16.07 0 .09-.04.11-.13.02-.07.09-.2.2-.38.16-.22.42-.29 1.04-.31l1.6-.04v4.44zm9.7 3.26c.56 0 1.18-.09 1.71-.42.78-.51 1.02-1.27 1.02-1.89 0-1.02-.47-1.78-1.78-2.75l-.31-.22c-.89-.69-1.13-1.07-1.13-1.55 0-.64.49-1.11 1.29-1.11.69 0 1 .31 1.18.53.22.27.27.6.27.71s.04.18.11.18c.09 0 .11-.07.11-.31 0-.84.04-1.15.04-1.31 0-.07-.04-.09-.13-.11-.29-.09-.73-.2-1.44-.2-1.51 0-2.49.87-2.49 2.04 0 .89.4 1.64 1.6 2.55l.49.4c.89.71 1.07 1.2 1.07 1.73 0 .56-.49 1.22-1.44 1.22-.69 0-1.31-.29-1.55-1.09-.04-.18-.09-.4-.09-.56 0-.09-.02-.18-.11-.18s-.13.11-.13.29c-.02.16-.04.82-.04 1.4 0 .24.02.29.2.38.44.21.93.27 1.55.27z"/></g><g id="_2224599546272"><path id="XMLID_4_" class="st1" d="M142.86 56.33V70.4c0 3.44-2.82 6.26-6.26 6.26H85.4c-3.44 0-6.26-2.82-6.26-6.26v-6.79h42.22c2.51 0 5.15-.18 7.59-.84 1.71-.49 3.44-1.2 4.86-2.33a8.056 8.056 0 0 0 2.58-3.49c.09-.2.16-.42.22-.62h6.25z"/><path id="XMLID_3_" class="st2" d="M142.86 31.22v20.31h-5.59c-.07-2.66-.91-4.99-3.17-6.59-2.89-2.04-7.04-2.51-10.48-2.46l-25.86.2c-1.42.02-3.02-.16-4.26-.91-1.53-.91-1.98-3.97-1.98-5.66 0-1.58.6-3.02 2-3.82 1.24-.71 2.82-.87 4.22-.87l45.12-.2z"/><path id="XMLID_2_" class="st3" d="M86.29 38.25c.09.98.31 1.95.71 2.86.51 1.2 1.29 2.2 2.31 3.02 1.2.98 2.69 1.62 4.17 2.06 2.04.62 4.28.8 6.39.8h25.71c1.44 0 3.09.18 4.33.98 1.49.95 1.89 4.26 1.89 5.95 0 1.55-.56 2.97-1.84 3.84-1.24.84-2.91 1.04-4.37 1.04H79.14V38.25h7.15z"/><path id="XMLID_1_" class="st4" d="M85.4 12.95h51.19c3.44 0 6.26 2.8 6.26 6.26v6.77H102.1c-2.49 0-5.15.2-7.57.87-1.71.47-3.44 1.15-4.84 2.26-1.15.89-2.02 1.98-2.6 3.31-.16.36-.29.71-.38 1.07h-7.57V19.21c0-3.47 2.82-6.26 6.26-6.26z"/></g></g></svg>